# xmcd CD database file
# Copyright (C) 1993-1998 Ti Kan
#
# Track frame offsets:
# 150
# 5165
# 21985
# 38715
# 57110
# 73482
# 90960
# 113267
# 137520
# 158100
# 176802
# 192130
#
# Disc length: 2784 seconds
# Revision: 0
# Processed by: cddbd v1.4b41PL1 Copyright (c) Steve Scherf et al.
# Submitted via: CDSpectrumPro v3.2.328
#
DISCID=970ade0c
DTITLE=Ill Al Skratch - Keep it Movin'
DYEAR=1900
DGENRE=
TTITLE0=Keep it Movin'
TTITLE1=Me and the Click
TTITLE2=Get Down
TTITLE3=Yo love
TTITLE4=Yeah 1,2
TTITLE5=Stick-n-move
TTITLE6=Gamin'
TTITLE7=Dance wit me-after the dance
TTITLE8=Where ya at?
TTITLE9=Get your swerve on
TTITLE10=Can you feel it?
TTITLE11=Bak ta Bak
EXTD=
EXTT0=
EXTT1=
EXTT2=
EXTT3=
EXTT4=
EXTT5=
EXTT6=
EXTT7=
EXTT8=
EXTT9=
EXTT10=
EXTT11=
PLAYORDER=
